<svg width="37" height="36" viewBox="0 0 37 36" fill="none" xmlns="http://www.w3.org/2000/svg">
<g clip-path="url(#clip0_52_93)">
<path d="M18.5 3C9.99 3 3.08333 9.72 3.08333 18C3.08333 26.28 9.99 33 18.5 33C27.01 33 33.9167 26.28 33.9167 18C33.9167 9.72 27.01 3 18.5 3ZM18.5 7.5C21.0592 7.5 23.125 9.51 23.125 12C23.125 14.49 21.0592 16.5 18.5 16.5C15.9408 16.5 13.875 14.49 13.875 12C13.875 9.51 15.9408 7.5 18.5 7.5ZM18.5 28.8C14.6458 28.8 11.2387 26.88 9.25 23.97C9.29625 20.985 15.4167 19.35 18.5 19.35C21.5679 19.35 27.7038 20.985 27.75 23.97C25.7613 26.88 22.3542 28.8 18.5 28.8Z" fill="white" fill-opacity="0.5"/>
</g>
<defs>
<clipPath id="clip0_52_93">
<rect width="37" height="36" fill="white"/>
</clipPath>
</defs>
</svg>
