<svg width="40" height="40" viewBox="0 0 40 40" fill="none" xmlns="http://www.w3.org/2000/svg">
<g clip-path="url(#clip0_164_239)">
<path d="M39.375 20C39.375 30.7005 30.7005 39.375 20 39.375C9.29945 39.375 0.625 30.7005 0.625 20C0.625 9.29945 9.29945 0.625 20 0.625C30.7005 0.625 39.375 9.29945 39.375 20ZM28.3085 17.2398C28.6942 14.6618 26.7311 13.2759 24.0468 12.3513L24.9176 8.85898L22.7916 8.32922L21.9438 11.7295C21.3849 11.5902 20.8109 11.4589 20.2405 11.3287L21.0943 7.90609L18.9695 7.37633L18.0981 10.8674C17.6355 10.762 17.1813 10.6579 16.7405 10.5484L16.743 10.5374L13.8109 9.80539L13.2454 12.0759C13.2454 12.0759 14.8228 12.4373 14.7895 12.4597C15.6506 12.6746 15.8062 13.2444 15.7802 13.696L14.7883 17.6745C14.8477 17.6897 14.9245 17.7115 15.0093 17.7454C14.9384 17.7278 14.8627 17.7084 14.7846 17.6897L13.3943 23.263C13.2889 23.5245 13.0219 23.9169 12.42 23.768C12.4412 23.7988 10.8747 23.3823 10.8747 23.3823L9.81922 25.8156L12.5859 26.5052C13.1006 26.6342 13.6051 26.7692 14.1016 26.8963L13.2217 30.4286L15.3453 30.9584L16.2166 27.4636C16.7798 27.6162 17.3446 27.7628 17.9109 27.9032L17.0426 31.3816L19.1686 31.9113L20.0484 28.3857C23.6737 29.0717 26.3999 28.795 27.5473 25.5164C28.472 22.8766 27.5013 21.3538 25.5939 20.3609C26.983 20.0407 28.0294 19.1271 28.3085 17.2398ZM23.4509 24.0507C22.7939 26.6905 18.3488 25.2634 16.9076 24.9056L18.0751 20.226C19.5162 20.5856 24.1376 21.2977 23.4509 24.0507ZM24.1085 17.2017C23.5091 19.603 19.8092 18.383 18.6091 18.0839L19.6675 13.8396C20.8677 14.1387 24.7328 14.6969 24.1085 17.2017Z" fill="white"/>
</g>
<defs>
<clipPath id="clip0_164_239">
<rect width="40" height="40" fill="white"/>
</clipPath>
</defs>
</svg>
