<svg width="40" height="40" viewBox="0 0 40 40" fill="none" xmlns="http://www.w3.org/2000/svg">
<path d="M36.675 23.1472L39.9578 8.70271C40.1949 7.6598 39.4022 6.66667 38.3326 6.66667H11.0561L10.4196 3.55487C10.261 2.77924 9.57847 2.22223 8.78674 2.22223H1.66667C0.746181 2.22223 0 2.96841 0 3.8889V5.00001C0 5.92049 0.746181 6.66667 1.66667 6.66667H6.51965L11.398 30.5163C10.2309 31.1875 9.44444 32.446 9.44444 33.8889C9.44444 36.0367 11.1856 37.7778 13.3333 37.7778C15.4811 37.7778 17.2222 36.0367 17.2222 33.8889C17.2222 32.8004 16.7745 31.817 16.0539 31.1111H30.6127C29.8922 31.817 29.4444 32.8004 29.4444 33.8889C29.4444 36.0367 31.1856 37.7778 33.3333 37.7778C35.4811 37.7778 37.2222 36.0367 37.2222 33.8889C37.2222 32.3492 36.3272 31.0186 35.0292 30.3885L35.4124 28.7027C35.6494 27.6598 34.8567 26.6667 33.7872 26.6667H15.147L14.6925 24.4445H35.0498C35.828 24.4445 36.5026 23.906 36.675 23.1472Z" fill="white"/>
</svg>
